#!OML:ASF \\sashay\E\basketball\basketball\Project 1\Capture day 1\Session 1\Subject.ASF
:FULLY-SPECIFIED
:DEGREES
84
root 6.53441 15.4916 -8.72469 -180.873 37.4985 -187.208
lowerback 8.13776 -0.461212 -13.0296
upperback 7.39314 -0.633023 -0.84855
thorax 3.52479 -0.605665 6.44907
lowerneck 0.282007 -7.17644 -15.367
upperneck -10.1503 -8.27614 21.1842
head -1.27609 -4.11882 9.15758
rclavicle -2.60408e-014 3.97569e-015
rhumerus -15.8594 -10.866 -65.9489
rradius 38.3292
rwrist 1.65008
rhand -19.7356 22.4611
rfingers 7.12502
rthumb 6.5951 -7.41624
lclavicle -2.60408e-014 3.97569e-015
lhumerus -34.9896 -2.39675 67.5773
lradius 108.325
lwrist 47.0096
lhand 10.0547 34.5958
lfingers 7.12502
lthumb 35.1782 61.11
rfemur -42.1375 -12.2579 20.5567
rtibia 35.823
rfoot 8.78644 7.11066
rtoes 17.7787
lfemur 22.1724 4.3457 -23.0351
ltibia 66.9568
lfoot 9.45281 9.40349
ltoes -20.1257
85
root 6.98118 15.4346 -9.10998 -181.055 36.8092 -186.718
lowerback 8.06893 -0.490992 -12.1687
upperback 7.29741 -0.647384 -0.808144
thorax 3.41817 -0.574045 6.01224
lowerneck 1.32295 -7.22088 -16.06
upperneck -10.7007 -8.44756 21.2456
head -1.54198 -4.2485 9.35734
rclavicle -4.4329e-014 2.06736e-014
rhumerus -15.3237 -11.3325 -65.5576
rradius 38.5064
rwrist 1.38193
rhand -19.7751 22.4168
rfingers 7.12502
rthumb 6.55691 -7.4617
lclavicle -4.4329e-014 2.06736e-014
lhumerus -36.2675 -2.05257 67.0876
lradius 110.57
lwrist 48.2275
lhand 11.501 35.4914
lfingers 7.12502
lthumb 36.5486 61.6712
rfemur -40.4693 -12.4214 21.0683
rtibia 38.5003
rfoot 1.32623 5.48262
rtoes 0.631151
lfemur 20.346 4.96711 -21.0497
ltibia 72.3107
lfoot 8.75839 10.1973
ltoes -16.952
86
root 7.41963 15.343 -9.47 -181.092 36.0198 -185.96
lowerback 8.15662 -0.43637 -11.3468
upperback 7.20921 -0.579963 -0.518188
thorax 3.22666 -0.508965 5.85997
lowerneck 1.84872 -7.13037 -15.5795
upperneck -11.0808 -8.40786 20.1819
head -1.84053 -4.24503 8.96026
rclavicle -3.25013e-014 4.59193e-014
rhumerus -14.8787 -11.8826 -65.0362
rradius 38.7208
rwrist 1.20245
rhand -19.8108 22.3788
rfingers 7.12502
rthumb 6.52246 -7.50078
lclavicle -3.25013e-014 4.59193e-014
lhumerus -37.5785 -1.88456 66.8433
lradius 112.966
lwrist 49.8086
lhand 12.9324 35.9521
lfingers 7.12502
lthumb 37.902 61.7779
rfemur -38.8413 -12.3562 21.9183
rtibia 41.5048
rfoot -3.8874 3.76648
rtoes -7.5519
lfemur 18.2329 5.51959 -18.5398
ltibia 77.8239
lfoot 8.02484 10.1535
ltoes -14.0254
87
root 7.86485 15.3189 -9.82505 -180.967 35.2019 -185.022
lowerback 8.40565 -0.294433 -10.3165
upperback 7.11651 -0.396127 -0.229845
thorax 2.91645 -0.370011 5.58166
lowerneck 2.39229 -7.18355 -15.9991
upperneck -11.476 -8.5817 19.769
head -2.02213 -4.33245 8.92984
rclavicle -1.57537e-014 1.39149e-014
rhumerus -14.4958 -12.3973 -64.7326
rradius 38.884
rwrist 1.0628
rhand -19.8416 22.3369
rfingers 7.12502
rthumb 6.49271 -7.54356
lclavicle -1.57537e-014 1.39149e-014
lhumerus -38.4653 -1.6859 66.7627
lradius 115.164
lwrist 51.4234
lhand 14.7481 36.1839
lfingers 7.12502
lthumb 39.6145 61.5251
rfemur -37.6446 -11.2776 22.3416
rtibia 44.4066
rfoot -6.61078 0.636162
rtoes 2.42783
lfemur 15.6519 5.92651 -15.996
ltibia 83.1313
lfoot 7.98044 9.80321
ltoes -12.7444
88
root 8.28608 15.2722 -10.1537 -180.483 34.4992 -183.632
lowerback 8.67329 -0.11887 -8.87964
upperback 7.07499 -0.130591 0.154205
thorax 2.63528 -0.180685 5.16575
lowerneck 3.45105 -7.41536 -16.4099
upperneck -12.4838 -8.97635 19.7176
head -2.40211 -4.55713 9.06233
rclavicle -6.47044e-014 2.8128e-014
rhumerus -13.8627 -12.4542 -64.8005
rradius 38.9424
rwrist 0.952753
rhand -19.869 22.2848
rfingers 7.12502
rthumb 6.46631 -7.59652
lclavicle -6.47044e-014 2.8128e-014
lhumerus -38.9183 -1.10913 67.0419
lradius 116.997
lwrist 52.6831
lhand 16.9496 36.6999
lfingers 7.12502
lthumb 41.6835 61.3951
rfemur -36.2762 -10.0679 23.3556
rtibia 46.7317
rfoot -8.93793 -1.59531
rtoes 0.59124
lfemur 12.5698 6.33253 -13.2408
ltibia 88.5161
lfoot 7.54126 8.6539
ltoes -12.9492
89
root 8.69476 15.2279 -10.4708 -179.304 34.1895 -180.984
lowerback 8.8681 0.124723 -6.54916
upperback 7.14794 0.308845 0.862109
thorax 2.49248 0.115028 4.56764
lowerneck 4.13432 -7.60486 -16.2855
upperneck -13.4915 -9.2477 19.2959
head -2.79371 -4.69687 8.97368
rclavicle -6.05299e-014 3.01159e-014
rhumerus -13.034 -12.3215 -65.1761
rradius 39.0074
rwrist 1.12802
rhand -19.9017 22.2194
rfingers 7.12502
rthumb 6.43467 -7.66286
lclavicle -6.05299e-014 3.01159e-014
lhumerus -39.2598 -0.190671 67.6475
lradius 118.613
lwrist 54.1024
lhand 18.4947 37.0084
lfingers 7.12502
lthumb 43.1303 61.2082
rfemur -34.4626 -8.39062 25.6122
rtibia 48.388
rfoot -10.8369 -3.57494
rtoes -5.53061
lfemur 9.52524 7.04109 -9.16242
ltibia 93.6238
lfoot 7.2464 6.6806
ltoes -14.4129
90
root 9.09155 15.2073 -10.7886 -177.744 34.1894 -177.511
lowerback 9.04367 0.431892 -3.53042
upperback 7.38548 0.92862 1.69364
thorax 2.55213 0.534054 3.69063
lowerneck 5.33627 -8.05172 -16.4592
upperneck -14.4439 -9.899 19.8623
head -3.10364 -5.08764 9.28234
rclavicle 2.20123e-014 -1.25234e-014
rhumerus -12.0993 -11.4236 -65.9137
rradius 38.8996
rwrist 1.49648
rhand -19.923 22.1461
rfingers 7.12502
rthumb 6.41417 -7.7368
lclavicle 2.20123e-014 -1.25234e-014
lhumerus -39.3714 0.983943 68.3665
lradius 120.055
lwrist 56.2185
lhand 19.3673 36.8517
lfingers 7.12502
lthumb 43.9452 60.755
rfemur -32.1434 -7.25732 28.7559
rtibia 49.2048
rfoot -12.5543 -4.40076
rtoes -9.29121
lfemur 6.6002 7.90666 -4.45995
ltibia 98.2345
lfoot 6.88017 4.45371
ltoes -14.658
